<?xml version="1.0" encoding="UTF-8"?>
<svg id="Layer_1" xmlns="http://www.w3.org/2000/svg" version="1.1" viewBox="0 0 504.55 152.44">
  <!-- Generator: Adobe Illustrator 30.5.1, SVG Export Plug-In . SVG Version: 2.1.4 Build 3)  -->
  <defs>
    <style>
      .st0 {
        fill: #58c4c0;
      }

      .st1 {
        fill: #545a5a;
      }

      .st2 {
        fill: #0ea8a6;
      }

      .st3 {
        fill: #a3dbde;
      }
    </style>
  </defs>
  <rect class="st2" x="231.32" y="59.77" width="77.44" height="26.02"/>
  <rect class="st0" x="231.43" y="29.65" width="59.07" height="26.04"/>
  <rect class="st3" x="231.38" y=".03" width="77.35" height="26.02"/>
  <path class="st1" d="M215.62,53.01c-4.94,5.56-12.35,8.33-22.25,8.33h-21.28v24.16h-32.33V0h55.33c9.49,0,16.51,2.31,21.09,6.9,4.57,4.62,6.86,11.68,6.86,21.19,0,11.04-2.47,19.36-7.42,24.91M188.74,24.49c-1.79-1.27-5.18-1.9-10.14-1.9h-6.5v18.98h5.67c5.01,0,8.53-.79,10.58-2.37,2.07-1.6,3.09-4.27,3.09-8.02,0-3.17-.89-5.39-2.69-6.68M379.82,49.6l26.62,35.9h-37.28l-12.56-19.77c-1.21-1.99-2.35-4.03-3.39-6.11-1.03-2.07-1.98-4.22-2.83-6.43h-.73c.23,1.99.38,4.12.47,6.36s.14,5.48.14,9.71v16.23h-31.88V0h56.34c9.7,0,16.79,1.91,21.26,5.76,4.49,3.84,6.73,9.9,6.73,18.18s-1.93,14.28-5.77,18.58c-3.86,4.32-9.56,6.67-17.13,7.08M367.93,24.36c-1.77-1.19-5.16-1.77-10.16-1.77h-7.5v17.36h6.67c5.04,0,8.57-.72,10.6-2.17,2.05-1.44,3.06-3.87,3.06-7.27,0-2.93-.89-4.97-2.67-6.15M504.55,85.5h-39.22l-13.89-23.16c-1.12-1.79-2.09-3.52-2.93-5.18-.83-1.68-1.51-3.31-2.08-4.93h-.73c.19,1.99.31,4.09.39,6.29.08,2.21.12,5.26.12,9.17v17.8h-31.66V0h31.66v18.1c0,1.79-.03,3.75-.12,5.89s-.19,5.04-.32,8.71h.66c.4-1.3,1.03-2.79,1.86-4.46.83-1.68,1.88-3.52,3.15-5.54L464.94,0h38.73l-30.85,42.47,31.74,43.03Z"/>
  <path class="st2" d="M105.83,43.84l-8.94-9.03-20.02,20.24c-2.5,2.53-2.35,4-1.33,6.22l4.1,4.16c1.24,1.25,2.9,1.96,5.76-.93l20.42-20.66ZM129.66,40.98l-37.19,37.6c-5.35,5.4-11.63,7.72-18.55,6.04-2.68-.65-4.42-2-5.56-3.16l-8.14-8.23c-3.87-3.93-5.03-9.55-2.87-16.65,1.19-3.86,3.36-7.04,5.97-9.67l22.65-22.9.02-.52-12.63-12.76L62.88.13h26.9l39.89,40.34v.51Z"/>
  <path class="st1" d="M72.32,29.18c-1.18,3.87-3.36,7.03-5.96,9.67l-22.66,22.9v.53s12.62,12.76,12.62,12.76l10.38,10.51h-26.9L0,45.3l.02-.52L37.2,7.19C42.56,1.77,48.84-.55,55.75,1.14c2.68.66,4.41,1.99,5.56,3.17l8.13,8.2c3.89,3.94,5.04,9.55,2.88,16.66M54.13,24.5l-4.09-4.16c-1.26-1.25-2.93-1.94-5.77.94l-20.43,20.64,8.94,9.04,20.03-20.25c2.5-2.53,2.35-3.99,1.33-6.22"/>
  <path class="st2" d="M113.22,132.16c-2.84,3.21-7.12,4.82-12.84,4.82h-12.28v13.93h-18.64v-49.32h31.93c5.46,0,9.52,1.32,12.15,3.99,2.64,2.65,3.95,6.72,3.95,12.21,0,6.37-1.43,11.16-4.28,14.36M97.7,115.72c-1.03-.74-2.97-1.1-5.84-1.1h-3.76v10.94h3.27c2.89,0,4.93-.45,6.11-1.36,1.19-.93,1.78-2.46,1.78-4.64,0-1.83-.52-3.1-1.56-3.84M166.3,145.73c-3.98,4.47-10.33,6.71-19.04,6.71s-15.04-2.23-19.01-6.67c-3.97-4.46-5.94-11.59-5.94-21.39,0-8.43,2-14.58,5.99-18.48,4.01-3.89,10.33-5.82,18.96-5.82s15.02,1.93,19.01,5.82c4.01,3.9,6,10.05,6,18.48,0,9.77-1.99,16.92-5.97,21.36M152.77,119.54c-1.24-1.61-3.08-2.41-5.52-2.41s-4.23.79-5.47,2.34c-1.21,1.56-1.83,3.89-1.83,6.94,0,3.61.61,6.31,1.83,8.12,1.24,1.8,3.04,2.72,5.47,2.72s4.24-.91,5.49-2.71c1.24-1.78,1.86-4.44,1.86-7.92,0-3.15-.62-5.5-1.84-7.08M222.56,144.31c-3.83,4.39-9.89,6.6-18.2,6.6h-25.35v-49.32h28.42c6.97,0,12.19,1.8,15.66,5.4,3.48,3.61,5.22,9.04,5.22,16.32,0,9.59-1.92,16.58-5.75,21M208.13,119.33c-1.47-1.33-3.83-1.99-7.07-1.99h-3.78v19.3h2.95c3.56,0,6.14-.84,7.72-2.56,1.57-1.7,2.37-4.47,2.37-8.34,0-2.95-.74-5.09-2.2-6.42M234.99,150.91v-49.32h18.73v33.31h18.58v16h-37.31ZM309.8,150.91l-1.45-7.85h-13.52l-1.67,7.85h-18.63l13.53-49.32h27.44l13.51,49.32h-19.22ZM303.62,119.77c-.44-1.88-.82-3.69-1.11-5.45-.3-1.76-.52-3.4-.65-4.96h-.49c-.2,1.79-.44,3.56-.75,5.34-.32,1.76-.66,3.52-1.08,5.28l-2.69,11.15h9.46l-2.69-11.37ZM362.24,150.91v-17.32h-10.43v17.32h-18.58v-49.32h18.58v17.53h10.43v-17.53h18.59v49.32h-18.59ZM418.29,136.03v14.88h-18.84v-15.52l-15.55-33.8h19.74l3.63,11.63c.36,1.23.67,2.54.94,3.95.28,1.4.5,2.89.64,4.47h.49c.19-1.77.42-3.35.71-4.75.27-1.4.58-2.62.93-3.68l3.6-11.63h19.32l-15.59,34.44Z"/>
</svg>