<?xml version="1.0" encoding="UTF-8"?>
<svg id="Layer_1" xmlns="http://www.w3.org/2000/svg" version="1.1" viewBox="0 0 516.91 340.5">
  <!-- Generator: Adobe Illustrator 30.5.1, SVG Export Plug-In . SVG Version: 2.1.4 Build 3)  -->
  <defs>
    <style>
      .st0 {
        fill: #545a5a;
      }

      .st1 {
        fill: #0ea8a6;
      }
    </style>
  </defs>
  <path class="st1" d="M421.86,174.24l-35.63-35.98-79.79,80.67c-9.96,10.07-9.36,15.95-5.3,24.78l16.36,16.57c4.93,5,11.57,7.81,22.96-3.69l81.4-82.35ZM516.86,162.85l-148.24,149.9c-21.34,21.53-46.37,30.79-73.94,24.06-10.69-2.58-17.61-7.97-22.17-12.58l-32.45-32.8c-15.44-15.65-20.05-38.05-11.43-66.38,4.75-15.4,13.41-28.05,23.79-38.56l90.3-91.27.09-2.07-50.34-50.87L250.67,0h107.22l159.03,160.8-.05,2.05Z"/>
  <path class="st0" d="M288.28,115.81c-4.7,15.44-13.41,28.03-23.74,38.54l-90.35,91.29-.05,2.12,50.34,50.87,41.39,41.88h-107.22L0,180.07l.09-2.07L148.29,28.14C169.68,6.57,194.71-2.7,222.22,4.06c10.69,2.63,17.56,7.95,22.17,12.65l32.4,32.7c15.49,15.72,20.1,38.05,11.48,66.4M215.77,97.17l-16.32-16.59c-5.02-5-11.66-7.74-23,3.76l-81.45,82.28,35.63,36.05,79.84-80.71c9.96-10.07,9.36-15.9,5.3-24.78"/>
</svg>